# xmcd
#
# Track frame offsets:
#	150
#	13445
#	23697
#	36530
#	50185
#	61640
#	73505
#	85382
#	97975
#	106330
#	116975
#	128905
#	141775
#	155392
#	167015
#	179217
#	189762
#	199812
#	212430
#	224412
#
# Disc length: 3117
#
# Revision: 2
# Processed by: cddbd v1.5.1PL0 Copyright (c) Steve Scherf et al.
# Submitted via: EasyCDDAExtractor 4.5.2.1
# Normalized: r0:DSETVAR1,TDELIM( - ),TSWAP
#
DISCID=290c2b14
DTITLE=Various Artist - Country Crossroads, Disc 1
DYEAR=1996
DGENRE=Country
TTITLE0=Hank Williams and The Drifting Cowbays - Hey Good Lookin'
TTITLE1=Eddy Arnold - I Wanna Play House With You
TTITLE2=Jim Reeves - Four Walls
TTITLE3=Patsy Cline - She's Got You
TTITLE4=Hank Locklin - Send Me The Pillow You Dream On
TTITLE5=Johnny Cash - Ring Of Fire
TTITLE6=Kitty Wells - Heartbreak U.S.A.
TTITLE7=Red Foley - Alabama Jubilee
TTITLE8=Roger Miller - Dang Me
TTITLE9=Floyd Cramer - San Antonio Rose
TTITLE10=Jim Reeves - Mexican Joe
TTITLE11=Hank Snow - I'm Movin' On
TTITLE12=Ray Price - City Lights
TTITLE13=Eddy Arnold - Kentucky Waltz
TTITLE14=Pee Wee King and his Band Featuring Redd Stewart - Changing Partnes
TTITLE15=Connie Smith - One A Day
TTITLE16=Willie Nelson - Bring Me Sunshine
TTITLE17=Bill Anderson - Still
TTITLE18=Don Gibson - I Can't Stop Loving You
TTITLE19=Marty Robbins - Just Married
EXTD=
EXTT0=
EXTT1=
EXTT2=
EXTT3=
EXTT4=
EXTT5=
EXTT6=
EXTT7=
EXTT8=
EXTT9=
EXTT10=
EXTT11=
EXTT12=
EXTT13=
EXTT14=
EXTT15=
EXTT16=
EXTT17=
EXTT18=
EXTT19=
PLAYORDER=
